Coordinates
version=1
nRows=6
nColumns=36
inDegrees=yes

Units are S.I. units (second, meters, Newtons, ...)
If the header above contains a line with 'inDegrees', this indicates whether rotational values are in degrees (yes) or radians (no).

endheader
time	pelvis_tilt	pelvis_list	pelvis_rotation	pelvis_tx	pelvis_ty	pelvis_tz	hip_flexion_r	hip_adduction_r	hip_rotation_r	knee_angle_r	knee_angle_r_beta	ankle_angle_r	subtalar_angle_r	mtp_angle_r	hip_flexion_l	hip_adduction_l	hip_rotation_l	knee_angle_l	knee_angle_l_beta	ankle_angle_l	subtalar_angle_l	mtp_angle_l	lumbar_extension	lumbar_bending	lumbar_rotation	arm_flex_r	arm_add_r	arm_rot_r	elbow_flex_r	pro_sup_r	arm_flex_l	arm_add_l	arm_rot_l	elbow_flex_l	pro_sup_l
      0.93000000	    -11.09941173	      1.59057085	      7.60540681	     -0.71855482	      1.25063363	     -0.58884126	     19.24322793	     -1.56511709	     -3.39854855	     49.55520272	      0.86490145	    -12.51182231	    -25.74001785	     -5.84531376	     19.78552003	     -2.15800735	     -3.58457395	     47.95594293	      0.83698910	    -12.73411668	    -11.15663519	     -5.84531376	     -4.61052967	     -4.03222418	      4.27494850	    -14.08519265	    -48.94619518	    -43.26322103	    140.76423898	    104.81776626	     72.28236840	    -45.48311417	     51.71996807	    123.20230941	     94.72292484
      0.94000000	    -11.00465768	      1.55808756	      7.75113827	     -0.70877975	      1.25345216	     -0.58880258	     20.34357177	     -1.83221618	     -4.02970204	     50.01484838	      0.87292378	    -12.14078410	    -26.65392035	     -6.05107578	     20.77341070	     -2.25135031	     -3.03181472	     48.91590026	      0.85374352	    -13.45768781	    -11.80466819	     -6.05107578	     -5.12017941	     -3.91589202	      4.95147222	    -19.96094829	    -48.26125688	    -48.24879746	    140.69334507	    105.58059239	     71.59248941	    -46.50692338	     52.08874807	    123.94902385	     95.11593211
      0.95000000	    -10.77254809	      1.50012035	      7.95098332	     -0.69943748	      1.25560026	     -0.58891529	     21.22758555	     -2.04073495	     -4.55024489	     49.96834691	      0.87211218	    -11.44098460	    -26.80705434	     -6.21361288	     21.71221742	     -2.33117867	     -2.29490529	     49.86548394	      0.87031688	    -13.29434483	    -11.32137064	     -6.21361288	     -5.87503778	     -3.70370742	      5.36119777	    -24.91628819	    -47.34078934	    -52.32337934	    140.27987302	    105.74018818	     70.49960378	    -47.72369774	     52.20893336	    124.64819783	     95.25297733
      0.96000000	    -10.43892727	      1.46321883	      8.17349191	     -0.69040420	      1.25703933	     -0.58907186	     21.97538020	     -2.21909415	     -4.89755026	     49.55792631	      0.86494898	    -11.04261054	    -26.70656782	     -6.23192960	     22.54982397	     -2.30422516	     -1.39808204	     50.57746034	      0.88274321	    -13.11699651	    -10.68414482	     -6.23192960	     -6.75198191	     -3.49256615	      4.85760957	    -27.54644023	    -46.86721600	    -53.62684997	    139.12945520	    105.63482661	     68.84798335	    -50.07653527	     52.10186656	    125.88368687	     95.37429454
      0.97000000	     -9.98357842	      1.44897198	      8.26376622	     -0.68128750	      1.25781411	     -0.58928722	     22.50953119	     -2.36043336	     -5.04227604	     48.76375694	      0.85108811	    -10.13786509	    -25.50758820	     -6.27874947	     23.16643044	     -2.35729594	     -0.82413881	     51.02606317	      0.89057281	    -11.97554985	     -8.76123760	     -6.27874947	     -7.93646602	     -3.12735184	      5.11959570	    -31.44808317	    -45.78032310	    -56.64211365	    138.47719615	    105.49605770	     66.28417907	    -51.45761580	     50.60989388	    126.39558767	     95.23763393
      0.98000000	     -9.45944639	      1.48596386	      8.32032539	     -0.67225385	      1.25768386	     -0.58932960	     22.97649305	     -2.52034454	     -5.13107352	     47.82098731	      0.83463368	     -9.10368068	    -24.06729630	     -6.33263133	     23.67021891	     -2.37913817	     -0.37766538	     51.23094331	      0.89414864	    -11.33191972	     -7.05078526	     -6.33263133	     -9.21146867	     -2.89323182	      5.47061920	    -35.09071632	    -44.44051995	    -59.22136653	    137.53046866	    105.24040095	     64.31397627	    -52.78666205	     50.17913751	    126.60314938	     95.09379067
